<svg viewBox="0 0 800 400" xmlns="http://www.w3.org/2000/svg" font-family="'Segoe UI', system-ui, sans-serif">
  <rect width="800" height="400" fill="#0D1B2A"/>
  <text x="400" y="36" text-anchor="middle" fill="#7B98B2" font-size="11" letter-spacing="3">DATA HIERARCHY</text>

  <!-- Level 1: Project -->
  <rect x="260" y="60" width="280" height="56" rx="8" fill="#112233" stroke="#00C9A7" stroke-width="2"/>
  <text x="400" y="84" text-anchor="middle" fill="#00C9A7" font-size="13" font-weight="600">PROJECT</text>
  <text x="400" y="103" text-anchor="middle" fill="#7B98B2" font-size="10">Complete study / set of user research interviews</text>

  <!-- Connector -->
  <line x1="400" y1="116" x2="400" y2="140" stroke="#1A3050" stroke-width="2"/>
  <line x1="190" y1="140" x2="610" y2="140" stroke="#1A3050" stroke-width="2"/>

  <!-- Level 2: Transcripts -->
  <line x1="220" y1="140" x2="220" y2="160" stroke="#1A3050" stroke-width="2"/>
  <rect x="120" y="160" width="200" height="56" rx="6" fill="#112233" stroke="#56CFE1" stroke-width="1.5"/>
  <text x="220" y="184" text-anchor="middle" fill="#56CFE1" font-size="12" font-weight="600">TRANSCRIPT</text>
  <text x="220" y="201" text-anchor="middle" fill="#7B98B2" font-size="9">Interview recording / file</text>

  <line x1="400" y1="140" x2="400" y2="160" stroke="#1A3050" stroke-width="2"/>
  <rect x="300" y="160" width="200" height="56" rx="6" fill="#112233" stroke="#56CFE1" stroke-width="1.5"/>
  <text x="400" y="184" text-anchor="middle" fill="#56CFE1" font-size="12" font-weight="600">TRANSCRIPT</text>
  <text x="400" y="201" text-anchor="middle" fill="#7B98B2" font-size="9">Interview recording / file</text>

  <line x1="580" y1="140" x2="580" y2="160" stroke="#1A3050" stroke-width="2"/>
  <rect x="480" y="160" width="200" height="56" rx="6" fill="#112233" stroke="#56CFE1" stroke-width="1.5"/>
  <text x="580" y="184" text-anchor="middle" fill="#56CFE1" font-size="12" font-weight="600">TRANSCRIPT</text>
  <text x="580" y="201" text-anchor="middle" fill="#7B98B2" font-size="9">Interview recording / file</text>

  <!-- Connectors level 2 → 3 -->
  <line x1="400" y1="216" x2="400" y2="246" stroke="#1A3050" stroke-width="2"/>
  <line x1="280" y1="246" x2="520" y2="246" stroke="#1A3050" stroke-width="2"/>

  <!-- Level 3 -->
  <line x1="300" y1="246" x2="300" y2="266" stroke="#1A3050" stroke-width="1.5"/>
  <rect x="190" y="266" width="130" height="44" rx="5" fill="#1A3050" stroke="#F4A261" stroke-width="1"/>
  <text x="255" y="286" text-anchor="middle" fill="#F4A261" font-size="10" font-weight="600">TAGS</text>
  <text x="255" y="302" text-anchor="middle" fill="#7B98B2" font-size="8">Labelled moments</text>

  <line x1="400" y1="246" x2="400" y2="266" stroke="#1A3050" stroke-width="1.5"/>
  <rect x="335" y="266" width="130" height="44" rx="5" fill="#1A3050" stroke="#F4A261" stroke-width="1"/>
  <text x="400" y="286" text-anchor="middle" fill="#F4A261" font-size="10" font-weight="600">ANNOTATIONS</text>
  <text x="400" y="302" text-anchor="middle" fill="#7B98B2" font-size="8">Researcher notes</text>

  <line x1="500" y1="246" x2="500" y2="266" stroke="#1A3050" stroke-width="1.5"/>
  <rect x="480" y="266" width="130" height="44" rx="5" fill="#1A3050" stroke="#F4A261" stroke-width="1"/>
  <text x="545" y="286" text-anchor="middle" fill="#F4A261" font-size="10" font-weight="600">INSIGHTS</text>
  <text x="545" y="302" text-anchor="middle" fill="#7B98B2" font-size="8">Synthesized findings</text>

  <!-- Legend -->
  <circle cx="130" cy="360" r="6" fill="#00C9A7"/>
  <text x="143" y="365" fill="#7B98B2" font-size="10">Project level</text>
  <circle cx="255" cy="360" r="6" fill="#56CFE1"/>
  <text x="268" y="365" fill="#7B98B2" font-size="10">Transcript level</text>
  <circle cx="390" cy="360" r="6" fill="#F4A261"/>
  <text x="403" y="365" fill="#7B98B2" font-size="10">Annotation level</text>
</svg>
